#!OML:ASF F:\VICON\USERDATA\INSTALL\rory3\rory3.ASF
:FULLY-SPECIFIED
:DEGREES
35
root 0.2201493241476319 18.837692414433647 3.8669826057036216 3.246581564643958 5.354235095204164 -3.892142512110393
lfemur -25.254700303409535 2.870380947723313 -15.558700582172154
ltibia 77.0841275175741
lfoot 4.324759528090803 -2.933079775927875
ltoes -6.117150431623488
rfemur -7.336859336596687 6.662777057655635 30.437499304701955
rtibia 19.504981373639076
rfoot -1.7943691526868306 -2.9545772520010756
rtoes 8.830998911921515
lowerback 11.539602394118033 -0.2686937348219893 3.986028505456063
upperback -0.7997809975697443 0.3249780377850793 2.8273008263301125
thorax -7.269679783460063 0.05184364070519365 0.26789998570915874
lowerneck -18.72167825044303 -2.4783018289951486 -2.5422580345372685
upperneck 17.73106014410324 -2.8517111781834563 1.1609719151059223
head 8.662313958701477 -1.3465435028418613 0.2996152195925622
lclavicle -2.2668558908245343e-15 6.810935621188029e-16
lhumerus -40.88947131029944 -8.443342964884867 93.1397644415218
lradius 69.21920282668418
lwrist 20.52930040623997
lhand -26.288555480390688 13.287367116798471
lfingers 7.125019999999999
lthumb 0.36827488267133096 43.13456025670681
rclavicle -2.2591398062865654e-15 6.865275492021889e-16
rhumerus -37.70833808160364 -3.7547138690365838 -90.81660008880449
rradius 69.99873080603541
rwrist -3.7638836403459472
rhand -16.27342919140303 31.326141629135428
rfingers 7.125019999999999
rthumb 9.70124361237598 1.284586112926893
36
root 0.25674173251747184 18.916978121709604 5.271000497862158 3.0804040604017326 5.830896422547509 -3.6757681558297124
lfemur -29.784309844584048 2.0787406218573445 -16.323335502107497
ltibia 70.82964469787024
lfoot 2.6347063133836053 -0.2535932043046669
ltoes -8.083035965088651
rfemur -4.474095652591924 5.863143965158574 30.561757335442326
rtibia 17.447456262580744
rfoot -2.3811719349240223 -2.9929097626368653
rtoes 6.300614644654165
lowerback 11.562640731561949 -0.31668600780857004 4.23893928280653
upperback -0.8556370580315305 0.2219466262869878 2.5660161211683072
thorax -7.351631269748 -0.05011871784663924 -0.30078246492308813
lowerneck -18.722299619846574 -2.588303076131801 -2.554260013041624
upperneck 18.053940436653523 -2.99769658331575 1.298427625551507
head 8.79810364888225 -1.3982479959832672 0.31493395222670206
lclavicle -2.2665808190432672e-15 6.81283288216054e-16
lhumerus -43.31343972301523 -7.733125741328214 93.15065843899043
lradius 68.38133575819418
lwrist 21.9567965576532
lhand -25.913693241963575 12.964012460320282
lfingers 7.125019999999999
lthumb 0.635320130594478 42.86291156764472
rclavicle -2.260739976456571e-15 6.854055210798598e-16
rhumerus -35.89821810477494 -1.0788907174844704 -91.31767843184292
rradius 72.07452748027472
rwrist -4.42738837520924
rhand -16.0814164643715 31.420398318449895
rfingers 7.125019999999999
rthumb 9.673462461331674 1.162607292122285
37
root 0.2900570851716372 19.046402675000536 6.754654867139315 2.7079913567177223 6.326758606910213 -3.35125957427364
lfemur -31.84809061359909 0.6857739728513521 -17.070522924551163
ltibia 60.13764610621404
lfoot 2.467941073627959 0.810718537315894
ltoes -7.795089341490204
rfemur -1.996119925990273 4.882619610966906 30.44054441557542
rtibia 15.593149156657901
rfoot -3.1160033073912135 -2.70851846463698
rtoes 3.923322168051593
lowerback 11.52455601506036 -0.4405604074244105 4.270545669109394
upperback -0.738078512362941 0.037995054174390086 2.4015581799321826
thorax -7.2684087399341735 -0.15356998171897063 -0.69967085424007
lowerneck -18.68485325300517 -2.719026231712655 -2.6996107093987605
upperneck 18.340475545452925 -3.15700734704284 1.4859788708826096
head 8.90366742533601 -1.4606475845578566 0.37884664441655463
lclavicle -2.2651164889328095e-15 6.823085073118386e-16
lhumerus -45.16218361989372 -6.804190420617895 93.03100195158724
lradius 67.28633444924688
lwrist 21.70790383337353
lhand -25.692989810744564 13.003302122606986
lfingers 7.125019999999999
lthumb 0.989373149537631 42.90400078380992
rclavicle -2.261556344628792e-15 6.848331426591683e-16
rhumerus -34.346266117539145 1.044324724741398 -91.35610696580947
rradius 73.56767573814234
rwrist -4.510229681630473
rhand -15.936846229013776 31.4242057943767
rfingers 7.125019999999999
rthumb 9.860677673624423 1.2513525599740962
38
root 0.3278909228685362 19.101098636112134 7.818781253749533 2.406431405404328 6.527359652821129 -2.979025270480741
lfemur -31.882170847332493 -1.4590180834019477 -17.480830998909717
ltibia 45.88145063903909
lfoot 3.032070654784891 1.0113059660420594
ltoes -6.811558574389408
rfemur -0.5688433988377462 3.844147526107319 30.00904641703412
rtibia 15.038216661420158
rfoot -3.912143861415715 -1.6133077205160546
rtoes 3.3425860148757276
lowerback 11.21636821002182 -0.5720145104023011 4.15599079511041
upperback -0.709205893027743 -0.18610212086601718 2.2907508044515112
thorax -7.129836797741883 -0.29529246477915483 -0.9589666954937293
lowerneck -18.485923455351713 -2.7378919646487074 -2.8098949410550307
upperneck 18.725173314353256 -3.1905032715108232 1.5252438248380402
head 9.015912099579221 -1.468793642778615 0.40081108371106067
lclavicle -2.2644824742897404e-15 6.827503047087857e-16
lhumerus -46.747428039194105 -5.684875137011142 92.77025291040401
lradius 65.90779748346753
lwrist 20.951632712396258
lhand -25.18040005482795 13.004302837661555
lfingers 7.125019999999999
lthumb 1.47349898128854 42.99857105593219
rclavicle -2.2601458535095075e-15 6.858221829988995e-16
rhumerus -33.17740074782444 2.407583968084955 -91.11476444687518
rradius 74.29202024121119
rwrist -4.126408420077361
rhand -15.881672704090695 31.058517254403682
rfingers 7.125019999999999
rthumb 9.98810396980038 1.280962362433211
39
root 0.38027078589373525 19.101902929611608 8.924893601695985 2.7540079466859972 6.196598680079834 -2.5342127322122225
lfemur -30.622465452290815 -3.6665926495141985 -17.543585155300242
ltibia 30.258408727504438
lfoot 3.6420275224008267 0.5207969680037965
ltoes -8.371312347884038
rfemur -0.4907823830367679 3.210405225179862 29.44600684737473
rtibia 16.259524584906018
rfoot -5.069198907008108 -0.922313688187848
rtoes 1.071953331685961
lowerback 10.412088271335048 -0.4496287799403851 3.783604842110318
upperback -0.9767662500199268 -0.10858994086446128 2.0547716713459887
thorax -6.780487276998277 -0.20577567816124565 -0.9136063844780751
lowerneck -18.37722734189122 -2.8126346471246233 -2.9899085002598893
upperneck 19.143557646441554 -3.2913167450960157 1.7305846864934804
head 9.098934499251182 -1.5142567449278423 0.49950615129296233
lclavicle -2.261432864814601e-15 6.848900827507171e-16
lhumerus -48.600722999641775 -4.352416333855428 92.21665189933981
lradius 64.83882156754375
lwrist 20.362801360914304
lhand -24.9655709918459 13.131350907582386
lfingers 7.125019999999999
lthumb 1.6825827030545684 42.85818135039392
rclavicle -2.2621687950079817e-15 6.844038815617873e-16
rhumerus -32.673569203940446 3.3213740967397003 -90.78630487394861
rradius 74.68841024274785
rwrist -3.764156481729375
rhand -15.69241307661415 30.922007514282708
rfingers 7.125019999999999
rthumb 10.038713991730825 1.648935614929488
